# xmcd
#
# Track frame offsets:
#	187
#	13560
#	29940
#	52215
#	70727
#	89037
#	111260
#	136017
#	151195
#	169860
#	193677
#
# Disc length: 2978 seconds
#
# Revision: 1
# Processed by: cddbd v1.5.1PL0 Copyright (c) Steve Scherf et al.
# Submitted via: CDex 1.50Beta5
#
DISCID=9a0ba00b
DTITLE=MAYA - センサシオン
DYEAR=1994
DGENRE=ミュージック
TTITLE0=夜はしずくのように
TTITLE1=いつわりのジャコギート
TTITLE2=石の町
TTITLE3=トッカータ
TTITLE4=セレナータ2
TTITLE5=チョケラーダ
TTITLE6=赤い雲
TTITLE7=すぎし日の想い出
TTITLE8=アロンドラ
TTITLE9=スビエンド ア エサ モンターニャ
TTITLE10=コンティスーユの霊峰
EXTD=
EXTT0=
EXTT1=
EXTT2=
EXTT3=
EXTT4=
EXTT5=
EXTT6=
EXTT7=
EXTT8=
EXTT9=
EXTT10=
PLAYORDER=
